<svg version="1.0" xmlns="http://www.w3.org/2000/svg" width="400" height="400" viewBox="0 0 300 300"><path d="M130 1.4C100.3 6 74.1 18.1 51.5 37.7 26.4 59.4 9.1 89.5 2.4 123.5c-2.5 12.4-2.5 40.2 0 53.4C12.5 231 50.5 275.5 101 292.4c16.2 5.4 27 7 47 7 15.4 0 20.3-.4 29-2.3 30.8-6.6 56.4-19.9 77.8-40.5 22.3-21.5 36.3-46.6 42.3-75.9 2.7-13.4 3.5-30.6 2-43.7C291.3 70.5 243 16.4 179.2 3 166.7.3 142-.5 130 1.4zm43.8 11.1c57.4 11.2 101.3 54.9 112.9 112.2 2.5 12.3 2.5 39.5 0 51.3-5.9 28.1-17.7 50.7-36.9 70.5-16.1 16.7-34.8 28.6-57.2 36-27.9 9.4-60.3 9.3-88.6-.1-19.7-6.6-37.8-17.5-52.7-31.7-17-16.3-29.3-35.7-36.7-57.8-5-14.8-6.9-26.8-6.9-43.4 0-28.6 7.6-53.8 23.5-77.7 7.5-11.2 25.1-29.1 36-36.6C85.7 22.6 107.6 14.3 131 11c9.2-1.3 33-.4 42.8 1.5z"/><path d="M122 25.1C99.7 28 76.3 39.7 60.1 56c-37.1 37.5-41.4 96.6-10 139.1 33.7 45.7 98.2 56.9 145.6 25.3 44.7-29.7 60.3-87.5 36.8-136.1-19.9-41.1-64.7-65.1-110.5-59.2zm38.6 65.4c1.9 1.9 2.3 3.1 1.8 4.8-.9 3.1-40.2 74.8-42.1 76.9-3.3 3.6-10.3 1.5-10.3-3 0-2.7 36.7-71.2 41.7-78 2.9-3.9 5.5-4.1 8.9-.7zm-45.6.1c0 .4-1 4.2-2.2 8.6-1.7 6.2-2.6 7.9-4.2 8.3-1.2.2-10.9 1.4-21.6 2.6-10.7 1.1-19.6 2.2-19.7 2.3-.1.1 7.5 6.2 16.8 13.6 19.2 15.1 17.9 12.8 14.1 25.2l-1.7 5.6L73 136.9c-12.9-11-24.1-20.6-24.8-21.3-1.1-1-1-2.4.4-7.7 1-3.5 2-6.8 2.4-7.2.4-.4 14.1-3 30.6-5.6 32.5-5.3 33.4-5.4 33.4-4.5zm85.6 37.5c13.2 11.1 24.1 20.3 24.3 20.5.8.7-3.2 14.6-4.3 15-1.9.7-63 10.3-63.4 9.9-.5-.5 4.1-16 5-16.6.5-.3 10.3-1.6 21.8-2.9 11.6-1.3 21-2.6 20.9-2.9 0-.3-7.6-6.5-16.9-13.6-9.4-7.2-17-13.4-17-13.8 0-2 4.4-15.7 5-15.7.4 0 11.5 9.1 24.6 20.1z"/></svg>